# xmcd
#
# Track frame offsets:
#	182
#	17100
#	31195
#	44207
#	60315
#	71972
#	88717
#	103027
#	115727
#	130612
#	146337
#	163532
#	177565
#	191575
#	202075
#	215495
#
# Disc length: 3060
#
# Revision: 3
# Processed by: cddbd v1.5.1PL0 Copyright (c) Steve Scherf et al.
# Submitted via: audiograbber 1.83.01
# Normalized: r2:DSETVAR1
#
DISCID=eb0bf210
DTITLE=Various Artist - Das Grosse Trucker Festival CD 1
DYEAR=1900
DGENRE=
TTITLE0=Western Union - Danke
TTITLE1=Dagmar - Ich mag starke Männer
TTITLE2=Tom Astor - Ich nehm' mir Zeit
TTITLE3=Jonny Hill - Sie ist stolz
TTITLE4=Gudrun Lange und Kactus - Himmelblaues Cabrio
TTITLE5=Tom Astor - Wir nannten ihn Jim Small
TTITLE6=Tom Astor - Leg nie deine Träume zu lange auf Eis
TTITLE7=Da Drüjje Piter - Vun Hillbillie Musik
TTITLE8=Gunter Gabriel - Die gelben Engel vom ADAC
TTITLE9=Tom Astor - Geh nie auf den Bock
TTITLE10=Linda Feller - Du bist das Slaz in meiner Suppe
TTITLE11=Nashville Music Company - Nur noch 100 Kilometer
TTITLE12=Tom Astor - Erst mal 'nen Kaffee
TTITLE13=Herrmann Lammers Meyer feat. Emsland Hillbillies - Der Geburtstag
TTITLE14=Pete Carson - Bare Footin'
TTITLE15=Tom Astor - Country Music
EXTD=2 CD, 32 Brandneue Brummi - Songs
EXTT0=
EXTT1=
EXTT2=
EXTT3=
EXTT4=
EXTT5=
EXTT6=
EXTT7=
EXTT8=
EXTT9=
EXTT10=
EXTT11=
EXTT12=
EXTT13=
EXTT14=
EXTT15=
PLAYORDER=
